<svg xmlns="http://www.w3.org/2000/svg" width="429.989" height="107.169" viewBox="0 0 429.989 107.169">
    <defs>
        <style>.a{clip-path:url(#a);}.b,.c,.d{fill:#fff;}.c{font-size:26px;}.c,.d{font-family:HiraKakuStdN-W8, Hiragino
            Kaku Gothic StdN;}.d{font-size:58px;}
        </style>
        <clipPath id="a">
            <rect width="429.989" height="107.169" transform="translate(0)"/>
        </clipPath>
    </defs>
    <g transform="translate(-843 -301)">
        <g class="a" transform="translate(843 301)">
            <g transform="translate(-0.403 3.691)">
                <path class="b"
                      d="M101,25.772,51,.879,1,25.772V75.558l16.668,8.3V34.069L51,17.475,84.332,34.069V83.854L101,75.558Z"
                      transform="translate(-1 -0.879)"/>
                <path class="b" d="M43.586,20.515,27.11,12,10.631,20.515V37.54L27.11,46.052,43.586,37.54Z"
                      transform="translate(22.89 20.974)"/>
                <path class="b" d="M43.586,25.9,27.11,34.414,10.631,25.9V42.927L27.11,51.439l16.476-8.512Z"
                      transform="translate(22.89 48.561)"/>
            </g>
            <g transform="translate(111.989 15.184)">
                <text class="c" transform="translate(3.474 15.625)">
                    <tspan x="0" y="0">Circle</tspan>
                </text>
                <text class="d" transform="translate(0 69.603)">
                    <tspan x="0" y="0">EduCare</tspan>
                </text>
            </g>
        </g>
    </g>
</svg>
